<svg width="100" height="100" viewBox="0 0 100 100" xmlns="http://www.w3.org/2000/svg">
  <rect width="100" height="100" fill="#FCE4EC"/>
  
  <!-- Palette -->
  <ellipse cx="50" cy="60" rx="35" ry="25" fill="#795548"/>
  
  <!-- Paint colors -->
  <circle cx="30" cy="55" r="6" fill="#F44336"/>
  <circle cx="45" cy="50" r="6" fill="#FF9800"/>
  <circle cx="60" cy="50" r="6" fill="#FFEB3B"/>
  <circle cx="70" cy="55" r="6" fill="#4CAF50"/>
  <circle cx="35" cy="65" r="6" fill="#2196F3"/>
  <circle cx="50" cy="70" r="6" fill="#9C27B0"/>
  <circle cx="65" cy="65" r="6" fill="#E91E63"/>
  
  <!-- Brush -->
  <rect x="70" y="30" width="4" height="25" fill="#8D6E63" transform="rotate(45 72 42)"/>
  <polygon points="85,20 95,25 90,35 80,30" fill="#FF5722" transform="rotate(45 87 27)"/>
  
  <!-- Artwork -->
  <circle cx="25" cy="25" r="8" fill="#E1F5FE" opacity="0.8"/>
  <rect x="65" y="75" width="15" height="10" fill="#F1F8E9" opacity="0.8"/>
  <polygon points="75,15 80,25 70,25" fill="#FFEBEE" opacity="0.8"/>
</svg>