<svg width="100" height="100" viewBox="0 0 100 100" xmlns="http://www.w3.org/2000/svg">
  <rect width="100" height="100" fill="#F3E5F5"/>
  
  <!-- Musical notes -->
  <ellipse cx="30" cy="60" rx="8" ry="6" fill="#9C27B0" transform="rotate(-20 30 60)"/>
  <rect x="36" y="25" width="3" height="35" fill="#9C27B0"/>
  <rect x="36" y="25" width="15" height="4" fill="#9C27B0"/>
  
  <ellipse cx="50" cy="65" rx="8" ry="6" fill="#E91E63" transform="rotate(-20 50 65)"/>
  <rect x="56" y="30" width="3" height="35" fill="#E91E63"/>
  
  <ellipse cx="70" cy="55" rx="8" ry="6" fill="#3F51B5" transform="rotate(-20 70 55)"/>
  <rect x="76" y="20" width="3" height="35" fill="#3F51B5"/>
  <rect x="76" y="20" width="12" height="4" fill="#3F51B5"/>
  
  <!-- Sound waves -->
  <path d="M20 40 Q15 50 20 60" stroke="#4CAF50" stroke-width="2" fill="none"/>
  <path d="M85 45 Q80 50 85 55" stroke="#FF9800" stroke-width="2" fill="none"/>
  
  <!-- Star -->
  <polygon points="50,10 52,16 58,16 53,20 55,26 50,22 45,26 47,20 42,16 48,16" fill="#FFD700"/>
</svg>